<?xml version="1.0" encoding="utf-8"?>
<!-- Generator: Adobe Illustrator 23.1.1, SVG Export Plug-In . SVG Version: 6.00 Build 0)  -->
<svg version="1.1" id="Layer_1" xmlns="http://www.w3.org/2000/svg" xmlns:xlink="http://www.w3.org/1999/xlink" x="0px" y="0px"
	 viewBox="0 0 280 160" style="enable-background:new 0 0 280 160;" xml:space="preserve">
<style type="text/css">
	.st0{fill:#FFFFFF;}
	.st1{fill:#2D2A26;}
	.st2{fill:#F19391;}
	.st3{fill:#1E1E1C;}
</style>
<g id="Icon_1_">
	<g>
		<g>
			<path class="st0" d="M167.74,7.7l-4.53,81.95c-0.09,1.61-1.42,2.87-3.03,2.87h-47.61c-1.61,0-2.94-1.26-3.03-2.87L105.01,7.7
				c-0.06-1.02,0.76-1.88,1.78-1.88h59.17C166.98,5.81,167.8,6.67,167.74,7.7z"/>
			<path class="st1" d="M160.18,93.33h-47.61c-2.04,0-3.73-1.6-3.84-3.64L104.2,7.74c-0.04-0.71,0.22-1.41,0.71-1.93
				C105.39,5.3,106.08,5,106.79,5h59.17c0.71,0,1.4,0.3,1.89,0.81c0.49,0.52,0.75,1.22,0.71,1.93l-4.53,81.95
				C163.91,91.73,162.22,93.33,160.18,93.33z M106.79,6.63c-0.27,0-0.52,0.11-0.71,0.3c-0.19,0.2-0.28,0.45-0.26,0.72l4.53,81.95
				c0.07,1.18,1.04,2.1,2.22,2.1h47.61c1.18,0,2.15-0.92,2.22-2.1l4.53-81.95c0.02-0.27-0.08-0.52-0.26-0.72
				c-0.19-0.2-0.44-0.3-0.71-0.3H106.79z"/>
		</g>
		<g>
			<path class="st2" d="M112.77,87.67c0.04,0.76,0.67,1.36,1.43,1.36h44.35c0.76,0,1.39-0.6,1.43-1.36l3.71-67.16h-54.64
				L112.77,87.67z"/>
		</g>
		<g>
			<g>
				<circle class="st0" cx="127.19" cy="37.25" r="6.67"/>
				<circle class="st3" cx="124.29" cy="37.25" r="3.77"/>
			</g>
			<g>
				<circle class="st0" cx="145.56" cy="37.25" r="6.67"/>
				<circle class="st3" cx="142.66" cy="37.25" r="3.77"/>
			</g>
		</g>
	</g>
	<path class="st0" d="M160.13,113.77c-0.33-0.82-0.82-1.47-1.47-1.79c-1.14-0.65-2.93-0.82-6.19,0c-2.45,0.65-5.22,1.79-7.34,3.42
		l-13.37,10.76c-1.14,0.82-2.45,1.3-3.91,1.3l-14.34,0.49l-0.82-0.49l13.69-7.5c1.14-0.65,1.96-1.63,2.28-2.93s0-2.61-0.65-3.59
		c-0.49-0.65-0.98-1.14-1.63-1.47c-1.96-0.82-5.22,0-5.22,0c-2.45,0.49-5.54,1.3-9.29,2.45c-3.91,1.3-8.8,1.96-12.06,2.77
		c-6.68,1.63-11.41,4.56-13.69,6.03v24.29c2.45-0.16,5.38-0.49,8.8-0.16c4.4,0.33,20.87-1.63,29.67-2.77l3.26-0.33
		c1.79-0.16,3.26-0.98,4.56-2.12l26.9-24.61C160.29,116.7,160.78,115.07,160.13,113.77z"/>
	<path class="st1" d="M82.86,120.45c0-0.98-0.65-1.63-1.63-1.63h-16.3c-0.98,0-1.63,0.65-1.63,1.63v34.23
		c0,0.98,0.65,1.63,1.63,1.63h16.3c0.98,0,1.63-0.65,1.63-1.63V120.45z"/>
	<path class="st1" d="M208.8,105.65H63.13c-0.28,0-0.51-0.23-0.51-0.51V98.7c0-0.28,0.23-0.51,0.51-0.51H208.8
		c0.28,0,0.51,0.23,0.51,0.51v6.44C209.31,105.42,209.09,105.65,208.8,105.65z"/>
</g>
</svg>
